<svg width="500" height="500" viewBox="0 0 500 500" fill="none" xmlns="http://www.w3.org/2000/svg">
<rect width="500" height="500" rx="250" fill="#F8F6F0"/>
<path d="M64.1861 348.36C58.0261 348.36 52.4261 346.4 47.3861 342.48C42.3461 338.56 39.0794 333.893 37.5861 328.48L57.1861 320.36C58.6794 323.16 59.7994 324.933 60.5461 325.68C61.2928 326.427 62.5061 326.8 64.1861 326.8C65.4928 326.8 66.4261 326.52 66.9861 325.96C67.7328 325.4 68.3861 324.467 68.9461 323.16L105.066 152.92H126.066L179.826 300.2L183.466 313.08L187.106 300.2L241.426 152.92H262.706L302.186 345.28H279.226L248.986 194.64L248.706 190.16L247.866 194.64L193.546 345.28H173.386L119.906 196.32L119.066 190.16L118.226 196.32L90.7861 326.52C89.4794 332.493 86.3061 337.627 81.2661 341.92C76.2261 346.213 70.5328 348.36 64.1861 348.36ZM389.233 350.6C371.687 350.6 356.567 345.84 343.873 336.32C331.18 326.613 323.247 314.013 320.073 298.52L339.393 290.12C342.007 301.693 347.887 311.12 357.033 318.4C366.367 325.68 377.287 329.32 389.793 329.32C402.86 329.32 413.5 325.587 421.713 318.12C430.113 310.467 434.313 300.667 434.313 288.72C434.313 282.56 433.1 277.427 430.673 273.32C428.247 269.027 424.047 265.013 418.073 261.28C412.1 257.547 403.607 253.44 392.593 248.96C373.927 241.307 360.487 233.373 352.273 225.16C344.06 216.76 339.953 206.96 339.953 195.76C339.953 186.8 342.287 178.68 346.953 171.4C351.807 163.933 358.34 158.147 366.553 154.04C374.767 149.747 383.913 147.6 393.993 147.6C402.767 147.6 410.7 149.187 417.793 152.36C425.073 155.533 430.767 159.92 434.873 165.52C439.167 170.933 441.313 176.907 441.313 183.44C441.313 191.467 438.7 198 433.473 203.04C428.247 208.08 421.62 210.6 413.593 210.6C411.167 210.6 409.3 210.507 407.993 210.32L409.673 191.28C410.793 191.653 411.633 191.84 412.193 191.84C414.06 191.84 415.647 191.093 416.953 189.6C418.447 187.92 419.193 185.96 419.193 183.72C419.193 179.613 416.767 176.16 411.913 173.36C407.06 170.373 401.273 168.88 394.553 168.88C385.967 168.88 378.5 171.4 372.153 176.44C365.807 181.48 362.633 187.547 362.633 194.64C362.633 200.987 365.807 206.96 372.153 212.56C378.5 217.973 388.207 223.387 401.273 228.8C421.247 237.013 435.62 245.787 444.393 255.12C453.167 264.267 457.553 275.373 457.553 288.44C457.553 300.2 454.567 310.84 448.593 320.36C442.62 329.693 434.407 337.067 423.953 342.48C413.687 347.893 402.113 350.6 389.233 350.6Z" fill="#09240D"/>
</svg>
